<?xml version="1.0" standalone="no"?>
<!DOCTYPE svg PUBLIC "-//W3C//DTD SVG 20010904//EN"
 "http://www.w3.org/TR/2001/REC-SVG-20010904/DTD/svg10.dtd">
<svg version="1.0" xmlns="http://www.w3.org/2000/svg"
 width="512.000000pt" height="512.000000pt" viewBox="0 0 512.000000 512.000000"
 preserveAspectRatio="xMidYMid meet">

<g transform="translate(0.000000,512.000000) scale(0.100000,-0.100000)"
fill="#000000" stroke="none">
<path d="M1305 5009 c-167 -20 -349 -75 -508 -155 -260 -131 -512 -385 -647
-654 -90 -179 -146 -393 -137 -524 19 -282 357 -539 923 -701 374 -108 863
-165 1174 -137 63 6 115 10 116 9 1 -1 4 -47 7 -103 l6 -101 -57 13 c-182 43
-424 36 -627 -16 -256 -66 -464 -188 -650 -382 -109 -113 -179 -212 -245 -350
-197 -409 -139 -798 171 -1157 151 -174 428 -369 695 -489 576 -258 1055 -217
1392 120 92 92 160 190 227 330 101 211 140 397 132 633 -7 219 -47 378 -143
573 -29 59 -46 105 -40 107 6 2 46 6 90 10 248 20 633 121 927 245 561 235
919 530 994 816 30 116 15 205 -64 371 -212 442 -599 740 -1082 829 -140 26
-401 24 -535 -4 -180 -38 -367 -112 -502 -198 -29 -19 -56 -34 -60 -34 -4 0
-27 43 -52 96 -95 209 -274 431 -460 570 -105 79 -335 195 -455 229 -188 54
-419 75 -590 54z m288 -214 c262 -46 499 -155 633 -291 158 -161 208 -404 121
-594 -29 -63 -148 -176 -241 -229 -93 -53 -212 -95 -349 -123 -84 -18 -137
-22 -302 -22 -184 0 -208 3 -295 26 -358 97 -618 275 -763 519 -20 35 -37 69
-37 76 0 17 97 159 155 226 l49 57 26 -57 c34 -74 67 -113 144 -167 141 -101
391 -200 626 -247 137 -27 380 -33 467 -11 161 42 226 175 149 306 -76 131
-294 253 -519 292 -149 26 -227 6 -227 -57 0 -44 30 -56 150 -62 77 -4 124
-12 177 -30 208 -73 358 -200 324 -274 -6 -14 -31 -33 -59 -46 -40 -18 -65
-21 -177 -21 -145 0 -227 11 -393 55 -284 74 -521 211 -553 319 -10 34 -9 43
17 90 33 60 59 82 164 139 217 116 490 164 713 126z m984 -628 c46 -83 103
-218 103 -243 0 -9 -29 -47 -64 -85 -168 -178 -296 -420 -352 -668 -13 -57
-29 -108 -36 -112 -42 -26 -525 -22 -728 6 -692 96 -1236 357 -1285 615 -9 52
54 330 75 330 4 0 22 -23 40 -51 76 -118 230 -257 387 -349 257 -152 528 -216
843 -199 348 19 622 128 806 321 104 108 147 222 147 388 0 52 -5 113 -11 135
l-11 40 23 -28 c13 -16 41 -61 63 -100z m1249 -63 c27 -5 33 -16 84 -150 30
-80 56 -149 58 -153 2 -5 -19 -12 -45 -15 -70 -10 -317 -72 -399 -100 l-71
-24 -72 191 c-56 147 -69 192 -59 198 15 10 138 38 211 49 64 9 254 12 293 4z
m278 -59 c93 -30 218 -92 311 -154 l70 -46 -135 -7 c-74 -4 -161 -9 -194 -10
l-58 -3 -44 115 c-24 63 -44 118 -44 123 0 11 12 9 94 -18z m-842 -234 c38
-101 66 -187 61 -191 -4 -4 -57 -29 -118 -56 -60 -26 -163 -77 -228 -112 -65
-35 -121 -61 -125 -58 -3 4 -30 68 -59 144 l-52 137 77 75 c42 42 106 96 142
122 74 52 211 129 224 125 4 -1 39 -85 78 -186z m1393 -128 c73 -77 240 -352
224 -367 -2 -2 -65 -9 -139 -15 -74 -7 -198 -21 -274 -32 -84 -12 -143 -16
-148 -11 -10 10 -86 203 -138 349 l-29 82 45 7 c24 3 109 10 187 14 254 13
232 15 272 -27z m-550 -238 c46 -121 82 -221 79 -224 -2 -3 -62 -19 -132 -36
-70 -17 -182 -49 -250 -70 -67 -21 -124 -36 -125 -34 -7 8 -178 461 -175 464
5 4 125 41 193 60 98 28 278 64 303 62 21 -2 33 -26 107 -222z m-1405 -13 c23
-63 38 -117 34 -121 -5 -4 -58 -43 -118 -87 -59 -43 -119 -87 -131 -97 l-24
-18 10 38 c24 93 55 174 97 258 42 86 81 150 87 143 1 -2 21 -54 45 -116z
m770 -167 c48 -127 85 -233 81 -236 -3 -3 -58 -27 -122 -53 -64 -26 -169 -74
-235 -106 -65 -32 -120 -57 -122 -56 -1 2 -41 103 -88 226 -80 208 -84 223
-67 235 57 43 437 226 457 221 4 -1 48 -105 96 -231z m-591 -304 c45 -118 80
-215 79 -216 -2 -1 -32 -19 -68 -40 -36 -21 -120 -74 -187 -117 l-121 -79 -60
30 -60 30 -11 63 c-6 35 -13 111 -17 170 l-7 107 34 32 c98 92 319 254 329
242 4 -4 44 -104 89 -222z m2027 192 c-21 -88 -100 -198 -212 -295 -74 -63
-172 -134 -178 -127 -2 2 -35 89 -75 193 -48 126 -68 192 -61 196 23 14 365
56 479 59 53 1 53 1 47 -26z m-585 -281 c44 -113 78 -211 75 -217 -5 -15 -196
-113 -326 -168 -158 -67 -141 -69 -174 21 -16 42 -58 151 -93 242 -36 91 -69
175 -73 186 -8 20 0 24 145 68 191 58 359 97 364 84 2 -6 39 -103 82 -216z
m-689 -34 c15 -40 59 -158 99 -261 39 -104 69 -190 67 -192 -19 -18 -437 -125
-488 -125 -26 0 -46 45 -186 413 -5 14 21 30 157 96 139 68 301 139 319 140 3
1 18 -32 32 -71z m-533 -457 c28 -74 48 -137 45 -140 -3 -3 -50 -8 -105 -9
l-99 -4 -82 77 c-46 43 -100 89 -120 103 l-38 25 52 36 c29 19 98 63 153 98
l99 62 22 -57 c12 -31 45 -117 73 -191z m-949 69 c83 -18 217 -63 233 -79 8
-8 -35 -85 -538 -946 -409 -702 -458 -785 -462 -781 -5 5 37 242 78 444 113
555 242 982 392 1306 l41 88 86 -6 c47 -4 123 -16 170 -26z m-443 -71 c-137
-300 -271 -769 -391 -1369 l-63 -312 -12 83 c-75 506 -86 637 -86 1029 0 190
4 362 8 383 7 34 18 44 93 93 86 57 170 98 259 129 67 23 219 54 223 45 1 -3
-13 -40 -31 -81z m904 -144 c118 -88 251 -238 297 -332 l15 -32 -76 -95 c-269
-333 -661 -694 -1182 -1086 -82 -62 -157 -118 -165 -124 -12 -9 -12 -7 1 14 9
14 38 63 64 110 41 73 762 1308 894 1533 25 42 50 77 56 77 5 0 49 -29 96 -65z
m-1586 -428 c1 -301 10 -437 55 -802 16 -126 28 -231 26 -232 -7 -7 -165 167
-203 222 -188 277 -201 550 -42 857 35 66 151 238 161 238 2 0 3 -127 3 -283z
m1994 -149 c36 -118 51 -225 51 -357 0 -69 -3 -136 -6 -149 -11 -38 -284 -198
-544 -318 -235 -108 -863 -345 -877 -331 -2 2 22 24 54 48 122 91 504 402 633
514 170 149 504 484 590 592 36 45 68 79 71 75 4 -4 16 -37 28 -74z m-23 -771
c-55 -147 -147 -288 -251 -385 -208 -194 -492 -247 -839 -157 -185 48 -187 42
25 114 360 124 687 266 937 407 81 45 148 83 149 83 2 1 -8 -27 -21 -62z"/>
</g>
</svg>
